<svg width="368" height="48" viewBox="0 0 368 48" fill="none" xmlns="http://www.w3.org/2000/svg">
<path d="M59.3057 1.29982H52.1987C52.1987 8.43821 49.4538 12.7977 41.9534 16.2491V1.29982H34.8019V18.8808C33.0406 19.4149 31.1255 19.9373 29.0393 20.4564H29.0343C27.4682 20.8372 25.9591 21.236 24.5018 21.6532V1.29982H17.3504V24.0674C6.33835 28.481 0 35.0495 0 46.7402H7.10695C7.10695 39.6022 9.85074 35.2431 17.3504 31.791V46.7402H24.5018V29.1597C26.2639 28.6255 28.1794 28.1021 30.2664 27.5825H30.2717C31.8367 27.2021 33.3454 26.8045 34.8019 26.3873V46.7402H41.9534V23.9735C52.9674 19.5595 59.3057 12.991 59.3057 1.29982Z" fill="#171717"/>
<path d="M85.9492 1.28942V46.7417H94.7814V27.5165H117.493V46.7417H126.261V1.29708H117.493V18.2189H94.7814V1.28942H85.9492" fill="#171717"/>
<path d="M171.857 1.30011V25.0148C171.857 31.9055 171.153 39.2141 159.943 39.2141C148.731 39.2141 147.935 32.0627 147.935 25.0148V1.30011H139.148V25.5785C139.148 36.4199 142.155 47.999 159.943 47.999C177.73 47.999 180.721 36.2519 180.721 25.5785V1.30011H171.857" fill="#171717"/>
<path d="M245.285 1.29697V46.7251H275.717V37.533H254.111V1.29697H245.285Z" fill="#171717"/>
<path d="M302.619 39.0057C294.036 39.0057 287.312 32.3612 287.312 23.8785C287.312 15.3969 294.036 8.75197 302.619 8.75197C311.201 8.75197 317.927 15.3969 317.927 23.8785C317.927 32.3612 311.201 39.0057 302.619 39.0057ZM302.62 -0.000340809C289.072 -0.000340809 278.453 10.4917 278.453 23.8823C278.453 37.2694 289.072 47.7554 302.62 47.7554C316.169 47.7554 326.784 37.2694 326.784 23.8823C326.784 10.4917 316.169 -0.000340809 302.62 -0.000340809Z" fill="#171717"/>
<path d="M330.379 1.29705V10.5414H344.552V46.7344H353.392V10.5414H367.218V1.29705H330.379Z" fill="#171717"/>
<path d="M216.582 38.4422H201.255L201.252 27.0299H216.634C221.19 27.0299 223.166 28.8206 223.166 32.8974C223.166 35.9516 221.927 38.4422 216.582 38.4422V38.4422ZM215.218 9.62293C220.135 9.62293 221.65 11.4214 221.65 14.4116C221.65 17.404 220.335 19.5341 215.402 19.5341L201.252 19.5387V9.62293H215.218ZM226.897 22.9081C229.626 20.7611 231.183 17.6352 231.183 13.8486C231.183 10.0735 229.668 1.29665 215.655 1.29665H192.482V46.7344H217.125C227.046 46.7344 232.742 41.6885 232.742 32.9089C232.742 28.6327 230.717 25.2084 226.897 22.9081Z" fill="#171717"/>
</svg>
